<svg width="47" height="42" viewBox="0 0 47 42" fill="none" xmlns="http://www.w3.org/2000/svg">
<path d="M25.191 4.69894L32.6912 4.69894C33.9361 4.69894 35.1289 5.19867 36.0021 6.08603V6.08603C36.857 6.95487 37.3361 8.12493 37.3361 9.34385V16.3561M21.1426 34.1847H13.6424C12.3975 34.1847 11.2047 33.6849 10.3315 32.7976V32.7976C9.47663 31.9287 8.9975 30.7587 8.9975 29.5398V22.5275M29.2394 40.3561L30.1388 38.8935C31.6763 36.3934 34.4011 34.8703 37.3361 34.8703V34.8703C40.2711 34.8703 42.9959 36.3934 44.5334 38.8935L45.4328 40.3561M1.91284 17.0418L2.81231 15.5792C4.34981 13.0791 7.07457 11.556 10.0096 11.556V11.556C12.9446 11.556 15.6694 13.0791 17.2069 15.5792L18.1063 17.0418M14.058 7.86221V4.27854C14.058 3.66908 13.8184 3.08405 13.3909 2.64963V2.64963C12.9544 2.20595 12.358 1.95609 11.7355 1.95609L8.28367 1.95609C7.66122 1.95609 7.06481 2.20595 6.62824 2.64963V2.64963C6.20078 3.08405 5.96122 3.66926 5.96122 4.27871C5.96122 5.60975 5.96122 6.67386 5.96122 7.86201C5.96122 8.47146 6.20078 9.0567 6.62824 9.49111V9.49111C7.06481 9.93479 7.66122 10.1847 8.28367 10.1847L11.7355 10.1847C12.358 10.1847 12.9544 9.93479 13.3909 9.49111V9.49111C13.8184 9.0567 14.058 8.47166 14.058 7.86221ZM41.3845 31.1765V27.5928C41.3845 26.9834 41.1449 26.3983 40.7174 25.9639V25.9639C40.2809 25.5202 39.6845 25.2704 39.062 25.2704H35.6102C34.9877 25.2704 34.3913 25.5202 33.9548 25.9639V25.9639C33.5273 26.3983 33.2877 26.9835 33.2877 27.593C33.2877 28.924 33.2877 29.9881 33.2877 31.1763C33.2877 31.7857 33.5273 32.371 33.9548 32.8054V32.8054C34.3913 33.2491 34.9877 33.4989 35.6102 33.4989H39.062C39.6845 33.4989 40.2809 33.2491 40.7174 32.8054V32.8054C41.1449 32.371 41.3845 31.7859 41.3845 31.1765Z" stroke="url(#paint0_linear_8_3744)" stroke-width="2.56"/>
<defs>
<linearGradient id="paint0_linear_8_3744" x1="23.6728" y1="1.95609" x2="23.6728" y2="40.3561" gradientUnits="userSpaceOnUse">
<stop stop-color="#00F08B"/>
<stop offset="1" stop-color="#00D176"/>
</linearGradient>
</defs>
</svg>
