<svg width="19" height="18" viewBox="0 0 19 18" fill="none" xmlns="http://www.w3.org/2000/svg">
<path d="M9.68498 1C10.0303 1 10.3364 1.22238 10.4431 1.55083L11.7655 5.62063C11.9206 6.09789 12.3653 6.42101 12.8671 6.42101H17.1339C17.5209 6.42101 17.8576 6.68585 17.9487 7.06192C18.0297 7.39602 17.8985 7.74568 17.6177 7.94405L14.169 10.3806C13.7546 10.6734 13.579 11.202 13.7358 11.6846L15.1955 16.1771C15.2771 16.4282 15.1983 16.7038 14.9964 16.8739C14.7681 17.0661 14.4383 17.078 14.1969 16.9026L10.3658 14.1192C9.95985 13.8242 9.41011 13.8242 9.00413 14.1192L5.08584 16.966C4.81358 17.1638 4.43799 17.1347 4.19947 16.8973C4.01235 16.711 3.94883 16.4339 4.03615 16.1848L5.61012 11.6941C5.78059 11.2077 5.60919 10.6671 5.18957 10.3679L1.60952 7.81458C1.30341 7.59627 1.20031 7.18848 1.36587 6.85092C1.49493 6.58778 1.76247 6.42101 2.05555 6.42101H6.50285C7.00467 6.42101 7.44942 6.09789 7.60449 5.62063L8.92684 1.55083C9.03356 1.22238 9.33963 1 9.68498 1Z" fill="url(#paint0_linear_8_3039)" fill-opacity="0.2" stroke="url(#paint1_linear_8_3039)" stroke-width="1.15833"/>
<defs>
<linearGradient id="paint0_linear_8_3039" x1="9.58084" y1="1" x2="9.58084" y2="17.3092" gradientUnits="userSpaceOnUse">
<stop stop-color="#00F08B" stop-opacity="0"/>
<stop offset="1" stop-color="#00D176"/>
</linearGradient>
<linearGradient id="paint1_linear_8_3039" x1="9.58084" y1="1" x2="9.58084" y2="17.3092" gradientUnits="userSpaceOnUse">
<stop stop-color="#00F08B"/>
<stop offset="1" stop-color="#00D176"/>
</linearGradient>
</defs>
</svg>
