<svg width="59" height="54" viewBox="0 0 59 54" fill="none" xmlns="http://www.w3.org/2000/svg">
<rect x="26.3834" y="23.1097" width="30.5029" height="29.2678" rx="14.6339" fill="url(#paint0_linear_8_3325)" fill-opacity="0.2" stroke="#FF517B" stroke-width="2.84444"/>
<rect x="34.3594" y="42.3752" width="16.9193" height="2.54448" rx="1.27224" transform="rotate(-45 34.3594 42.3752)" fill="#FF517B"/>
<rect width="16.9193" height="2.54448" rx="1.27224" transform="matrix(-0.707107 -0.707107 -0.707107 0.707107 47.8987 42.1252)" fill="#FF517B"/>
<rect x="1.42222" y="1.73472" width="29.2678" height="29.2678" rx="14.6339" fill="url(#paint1_linear_8_3325)" fill-opacity="0.2" stroke="url(#paint2_linear_8_3325)" stroke-width="2.84444"/>
<path d="M15.2689 21.898C14.9577 22.3327 14.5375 22.55 14.0085 22.55C13.7492 22.55 13.5132 22.498 13.3005 22.3941C13.0878 22.2902 12.883 22.1248 12.6859 21.898L8.88914 17.6455C8.65055 17.3525 8.53125 17.0596 8.53125 16.7666C8.53125 16.4548 8.64795 16.1878 8.88136 15.9658C9.11476 15.7437 9.39744 15.6326 9.72939 15.6326C9.94724 15.6326 10.1469 15.6728 10.3285 15.7531C10.51 15.8334 10.6941 15.987 10.8809 16.2138L13.9463 19.8284L20.4039 10.3879C20.6943 9.96262 21.0573 9.75 21.4929 9.75C21.8146 9.75 22.1051 9.8445 22.3644 10.0335C22.6238 10.2225 22.7535 10.4729 22.7535 10.7848C22.7535 10.9454 22.7145 11.1037 22.6367 11.2596C22.5589 11.4156 22.4734 11.5597 22.38 11.692L15.2689 21.898Z" fill="url(#paint3_linear_8_3325)"/>
<defs>
<linearGradient id="paint0_linear_8_3325" x1="56.2243" y1="35.7366" x2="-22.9757" y2="35.7366" gradientUnits="userSpaceOnUse">
<stop stop-color="#FF517B"/>
<stop offset="0.9999" stop-color="#87767A" stop-opacity="0.0104167"/>
<stop offset="1" stop-color="#D20026" stop-opacity="0"/>
</linearGradient>
<linearGradient id="paint1_linear_8_3325" x1="30.1053" y1="14.3616" x2="-46.1614" y2="14.3616" gradientUnits="userSpaceOnUse">
<stop stop-color="#00F08B"/>
<stop offset="1" stop-color="#00D176" stop-opacity="0"/>
</linearGradient>
<linearGradient id="paint2_linear_8_3325" x1="32.1123" y1="16.3686" x2="-34.5967" y2="17.1289" gradientUnits="userSpaceOnUse">
<stop stop-color="#00F08B"/>
<stop offset="1" stop-color="#00D176"/>
</linearGradient>
<linearGradient id="paint3_linear_8_3325" x1="15.6424" y1="9.75" x2="15.6424" y2="22.55" gradientUnits="userSpaceOnUse">
<stop stop-color="#00F08B"/>
<stop offset="1" stop-color="#00D176"/>
</linearGradient>
</defs>
</svg>
