<svg width="130" height="34" viewBox="0 0 130 34" fill="none" xmlns="http://www.w3.org/2000/svg">
<path d="M61.396 24.1121L63.3811 26.8777H44.6802V6.23364H47.4458V24.1121H61.396Z" fill="white"/>
<path d="M86.4586 6.23364V19.1812C86.4586 21.6547 85.392 23.882 83.693 25.4249C82.1961 26.7857 80.2069 27.6142 78.0256 27.6142H72.5885C70.4072 27.6142 68.418 26.7857 66.9211 25.4249C65.2221 23.882 64.1555 21.6567 64.1555 19.1812V6.23364H66.9211L66.8751 17.9985C66.8751 18.2667 66.8911 18.5328 66.9211 18.793C67.3154 22.227 70.2311 24.8946 73.7712 24.8946H76.8429C80.383 24.8946 83.3007 22.229 83.693 18.793C83.723 18.5328 83.739 18.2667 83.739 17.9985L83.693 6.23364H86.4586Z" fill="white"/>
<path d="M106 24.1121L107.985 26.8777H89.2843V6.23364H92.0499V24.1121H106Z" fill="white"/>
<path d="M118.738 5.62939C112.666 5.62939 107.745 10.5523 107.745 16.6218C107.745 22.6914 112.666 27.6143 118.738 27.6143C124.809 27.6143 129.73 22.6934 129.73 16.6218C129.73 10.5503 124.809 5.62939 118.738 5.62939ZM118.738 24.8486C114.195 24.8486 110.511 21.1645 110.511 16.6218C110.511 12.0792 114.195 8.39501 118.738 8.39501C123.28 8.39501 126.964 12.0792 126.964 16.6218C126.964 21.1645 123.28 24.8486 118.738 24.8486Z" fill="white"/>
<path d="M16.5757 33.1314C7.42035 33.1314 0 25.7111 0 16.5557C0 7.40033 7.0061 0.402236 15.8033 0C7.87661 0.402236 1.57292 6.95407 1.57292 14.9828C1.57292 22.3011 6.81399 28.3966 13.7481 29.7194C15.387 30.0316 16.5757 31.4624 16.5757 33.1314Z" fill="url(#paint0_linear_1_518)"/>
<path d="M16.5757 0C25.731 0 33.1514 7.42035 33.1514 16.5757C33.1514 25.7311 26.1453 32.7292 17.3481 33.1314C25.2748 32.7292 31.5785 26.1773 31.5785 18.1486C31.5785 10.8303 26.3374 4.73477 19.4033 3.412C17.7624 3.09982 16.5757 1.66898 16.5757 0Z" fill="url(#paint1_linear_1_518)"/>
<defs>
<linearGradient id="paint0_linear_1_518" x1="1.49988" y1="1.69571" x2="16.133" y2="25.7629" gradientUnits="userSpaceOnUse">
<stop stop-color="#00F08B"/>
<stop offset="1" stop-color="#008F51"/>
</linearGradient>
<linearGradient id="paint1_linear_1_518" x1="18.0756" y1="1.69571" x2="32.7087" y2="25.7629" gradientUnits="userSpaceOnUse">
<stop stop-color="#00F08B"/>
<stop offset="1" stop-color="#008F51"/>
</linearGradient>
</defs>
</svg>
