<svg width="48" height="48" viewBox="0 0 48 48" fill="none" xmlns="http://www.w3.org/2000/svg">
<path d="M24.1122 47.8396C10.9285 47.8396 0.243164 37.1543 0.243164 23.9706C0.243164 10.7869 10.332 0.70959 22.9999 0.130371C11.5855 0.70959 2.50817 10.1442 2.50817 21.7056C2.50817 32.2439 10.0553 41.0215 20.0404 42.9263C22.4005 43.3759 24.1122 45.4363 24.1122 47.8396Z" fill="white"/>
<path d="M24.1082 0.130371C37.2919 0.130371 47.9772 10.8157 47.9772 23.9994C47.9772 37.1831 37.8884 47.2604 25.2205 47.8396C36.6349 47.2604 45.7122 37.8257 45.7122 26.2644C45.7122 15.7261 38.165 6.94844 28.18 5.04365C25.817 4.59411 24.1082 2.5337 24.1082 0.130371Z" fill="white"/>
</svg>
