<svg width="41" height="29" viewBox="0 0 41 29" fill="none" xmlns="http://www.w3.org/2000/svg">
<path d="M7.27808 21.8476C7.51776 21.628 7.8427 21.5046 8.18149 21.5046H39.4405C40.0099 21.5046 40.2949 22.1362 39.8921 22.5053L33.7154 28.1659C33.4758 28.3856 33.1508 28.5089 32.812 28.5089H1.55305C0.983652 28.5089 0.698578 27.8774 1.10134 27.5082L7.27808 21.8476Z" fill="white"/>
<path d="M7.27808 0.699973C7.51773 0.480311 7.84268 0.356923 8.18149 0.356934H39.4405C40.0099 0.356934 40.2949 0.988489 39.8921 1.35769L33.7154 7.01828C33.4758 7.23789 33.1508 7.36125 32.812 7.36125H1.55305C0.983652 7.36125 0.698578 6.7297 1.10134 6.36057L7.27808 0.699973Z" fill="white"/>
<path d="M33.7154 11.2064C33.4758 10.9868 33.1508 10.8634 32.812 10.8634H1.55305C0.983652 10.8634 0.698578 11.495 1.10134 11.8641L7.27808 17.5247C7.51773 17.7444 7.84268 17.8678 8.18149 17.8678H39.4405C40.0099 17.8678 40.2949 17.2362 39.8921 16.867L33.7154 11.2064Z" fill="white"/>
</svg>
